<svg width="32" height="32" viewBox="0 0 32 32" fill="none" xmlns="http://www.w3.org/2000/svg">
<path d="M4.57227 18.057C13.4865 18.2857 20.5723 10.9715 20.5723 2.28589H20.3436C19.2008 2.28589 18.2864 3.20026 18.058 4.34307C17.6009 7.54307 16.0008 10.5144 13.7152 12.5716C11.8866 14.4002 9.37236 15.543 6.62945 16.0003C5.48664 16.0001 4.57227 16.9142 4.57227 18.057Z" fill="#F6B545"/>
<path d="M11.4289 9.37161C11.2003 9.37161 10.9718 9.37161 10.7432 9.14297C10.2861 8.68588 10.2861 8.00015 10.7432 7.54307C12.1147 6.17161 12.8004 4.11442 12.8004 2.28588C12.8004 1.60015 13.2575 1.14307 13.9432 1.14307C14.6289 1.14307 15.086 1.60015 15.086 2.28588C15.086 4.80015 14.1717 7.31442 12.5717 9.14297C12.1145 9.37161 11.6574 9.37161 11.4289 9.37161Z" fill="#FFCB5B"/>
<path d="M16 32C24.8366 32 32 24.8366 32 16C32 7.16344 24.8366 0 16 0C7.16344 0 0 7.16344 0 16C0 24.8366 7.16344 32 16 32Z" fill="#FFCF40"/>
<path fill-rule="evenodd" clip-rule="evenodd" d="M0 16C0 7.08573 7.08573 0 16 0C24.9143 0 32 7.08573 32 16C32 24.9143 24.9143 32 16 32C7.08573 32 0 24.9143 0 16ZM4.57188 16C4.57188 22.4 9.60042 27.4286 16.0004 27.4286C22.4004 27.4286 27.429 22.4 27.429 16C27.429 9.60003 22.4004 4.57148 16.0004 4.57148C9.60042 4.57148 4.57188 9.60003 4.57188 16Z" fill="#FFDB70"/>
<path d="M16 31.7714C24.9143 32 32 24.6856 32 16H31.7714C30.6285 16 29.7142 16.9144 29.4857 18.0572C29.0286 21.2572 27.4285 24.2285 25.1429 26.2857C23.3144 28.1143 20.8001 29.2571 18.0572 29.7144C16.9144 29.7142 16 30.6283 16 31.7714Z" fill="#FFBF00"/>
<path d="M16 0.228608C7.08573 -3.33339e-05 0 7.31434 0 16H0.228642C1.37146 16 2.28583 15.0856 2.51427 13.9428C2.97136 10.7428 4.57146 7.77142 6.85709 5.71424C8.68563 3.8857 11.1999 2.74288 13.9428 2.2856C15.0858 2.28579 16 1.37142 16 0.228608Z" fill="#FFD24F"/>
<path d="M6.17236 17.6C6.17236 11.2 11.2009 6.17143 17.6009 6.17143C20.3438 6.17143 22.8581 7.0858 24.9151 8.91435C22.6294 6.17143 19.6579 4.57153 16.0008 4.57153C9.60081 4.57153 4.57227 9.60008 4.57227 16.0001C4.57227 19.6572 6.17217 22.6285 8.68644 24.6857C7.08654 22.8572 6.17236 20.3429 6.17236 17.6Z" fill="#FFBF00"/>
<path d="M22.8567 23.0855C22.628 23.0855 22.3996 23.0855 22.1709 22.8568C21.7139 22.3997 21.7139 21.714 22.1709 21.2569C23.5424 19.8855 24.2281 17.8283 24.2281 15.9997C24.2281 15.314 24.6852 14.8569 25.3709 14.8569C26.0567 14.8569 26.5138 15.314 26.5138 15.9997C26.5138 18.514 25.5994 21.0283 23.9995 22.8568C23.5424 23.0855 23.0853 23.0855 22.8567 23.0855Z" fill="#FFD24F"/>
<path d="M16.0015 22.8572C14.63 22.8572 13.7158 21.9429 13.7158 20.5716V11.4287C13.7158 10.0572 14.6302 9.14307 16.0015 9.14307C17.3729 9.14307 18.2871 10.0574 18.2871 11.4287V20.5714C18.2873 21.9429 17.3729 22.8572 16.0015 22.8572Z" fill="#FFBF00"/>
</svg>
