<svg width="24" height="24" viewBox="0 0 24 24" fill="none" xmlns="http://www.w3.org/2000/svg">
<path fill-rule="evenodd" clip-rule="evenodd" d="M11.992 4C7.576 4 4 7.584 4 12C4 16.416 7.576 20 11.992 20C16.416 20 20 16.416 20 12H18.4C18.4 15.536 15.536 18.4 12 18.4C8.464 18.4 5.6 15.536 5.6 12C5.6 8.464 8.464 5.6 12 5.6C12.3402 5.6 12.6742 5.62651 13 5.67758V4.06277C12.6698 4.02135 12.3334 4 11.992 4ZM17 8.0035V8H16.9972C16.9981 8.00117 16.9991 8.00234 17 8.0035ZM16 10C16 10.664 15.464 11.2 14.8 11.2C14.136 11.2 13.6 10.664 13.6 10C13.6 9.336 14.136 8.8 14.8 8.8C15.464 8.8 16 9.336 16 10ZM9.2 11.2C9.864 11.2 10.4 10.664 10.4 10C10.4 9.336 9.864 8.8 9.2 8.8C8.536 8.8 8 9.336 8 10C8 10.664 8.536 11.2 9.2 11.2ZM15.7997 14.2C15.0397 15.512 13.6237 16.4 11.9997 16.4C10.3757 16.4 8.95972 15.512 8.19972 14.2C8.04772 13.936 8.24772 13.6 8.55172 13.6H15.4477C15.7597 13.6 15.9517 13.936 15.7997 14.2Z" fill="#CACACA"/>
<path fill-rule="evenodd" clip-rule="evenodd" d="M19.0002 2C18.5584 2 18.2002 2.35817 18.2002 2.8V5.19995H15.8C15.3582 5.19995 15 5.55812 15 5.99995C15 6.44178 15.3582 6.79995 15.8 6.79995H18.2002V9.2C18.2002 9.64183 18.5584 10 19.0002 10C19.442 10 19.8002 9.64183 19.8002 9.2V6.79995H22.2C22.6418 6.79995 23 6.44178 23 5.99995C23 5.55812 22.6418 5.19995 22.2 5.19995H19.8002V2.8C19.8002 2.35817 19.442 2 19.0002 2Z" fill="#CACACA"/>
</svg>
