<svg width="16" height="16" viewBox="0 0 16 16" fill="none" xmlns="http://www.w3.org/2000/svg">
<path d="M7.99967 1.33325C4.31967 1.33325 1.33301 4.31992 1.33301 7.99992C1.33301 11.6799 4.31967 14.6666 7.99967 14.6666C11.6797 14.6666 14.6663 11.6799 14.6663 7.99992C14.6663 4.31992 11.6797 1.33325 7.99967 1.33325ZM7.33301 13.2866C4.69967 12.9599 2.66634 10.7199 2.66634 7.99992C2.66634 7.58659 2.71967 7.19325 2.80634 6.80659L5.99967 9.99992V10.6666C5.99967 11.3999 6.59967 11.9999 7.33301 11.9999V13.2866ZM11.933 11.5933C11.7597 11.0533 11.2663 10.6666 10.6663 10.6666H9.99967V8.66659C9.99967 8.29992 9.69967 7.99992 9.33301 7.99992H5.33301V6.66659H6.66634C7.03301 6.66659 7.33301 6.36659 7.33301 5.99992V4.66659H8.66634C9.39967 4.66659 9.99967 4.06659 9.99967 3.33325V3.05992C11.953 3.85325 13.333 5.76659 13.333 7.99992C13.333 9.38659 12.7997 10.6466 11.933 11.5933Z" fill="#9D9D9D"/>
</svg>
