<svg width="18" height="18" viewBox="0 0 18 18" fill="none" xmlns="http://www.w3.org/2000/svg">
<path fill-rule="evenodd" clip-rule="evenodd" d="M11.7101 10.9999H12.5001L16.7401 15.2599C17.1501 15.6699 17.1501 16.3399 16.7401 16.7499C16.3301 17.1599 15.6601 17.1599 15.2501 16.7499L11.0001 12.4999V11.7099L10.7301 11.4299C9.33014 12.6299 7.42014 13.2499 5.39014 12.9099C2.61014 12.4399 0.390137 10.1199 0.0501373 7.31989C-0.469863 3.08989 3.09014 -0.470107 7.32014 0.0498932C10.1201 0.389893 12.4401 2.60989 12.9101 5.38989C13.2501 7.41989 12.6301 9.32989 11.4301 10.7299L11.7101 10.9999ZM2.00014 6.49989C2.00014 8.98989 4.01014 10.9999 6.50014 10.9999C8.99014 10.9999 11.0001 8.98989 11.0001 6.49989C11.0001 4.00989 8.99014 1.99989 6.50014 1.99989C4.01014 1.99989 2.00014 4.00989 2.00014 6.49989Z" fill="#CACACA"/>
</svg>
