<svg width="40" height="40" viewBox="0 0 40 40" fill="none" xmlns="http://www.w3.org/2000/svg">
<path d="M5.30489 20.8175H4.27403C3.57046 20.8175 3 20.2593 3 19.5708V16.4254C3 15.737 3.57046 15.1787 4.27403 15.1787H5.30489V20.8175Z" fill="#D13800"/>
<path d="M14.5546 23.1584L6.83092 22.6988C5.98791 22.6401 5.33447 21.9539 5.33447 21.1267V14.8479C5.33447 14.129 5.90205 13.533 6.63443 13.4816L14.554 13.0085L14.5546 23.1584Z" fill="#FF4400"/>
<path d="M27.2001 30.4736L15.8865 24.938C15.07 24.5382 14.5537 23.7217 14.5537 22.8285V13.2928C14.5537 12.4233 15.0429 11.6243 15.826 11.2138L27.1401 5.28288C28.7461 4.44101 30.6885 5.57948 30.6885 7.36133V28.3635C30.6885 30.1172 28.8025 31.2579 27.2001 30.4736Z" fill="#E2E2E2"/>
<path d="M31.2349 15.1787H30.6587V20.8175H31.2349C32.5026 20.8175 33.5398 19.8025 33.5398 18.562V17.4342C33.5398 16.1937 32.5026 15.1787 31.2349 15.1787Z" fill="#D13800"/>
<path d="M35.268 21.9453C35.1522 21.9453 35.0347 21.9109 34.9327 21.8399C34.6745 21.6583 34.6146 21.3059 34.8007 21.0527C35.1269 20.6073 35.8823 19.4192 35.8454 18.0129C35.8166 16.8986 35.4645 15.865 34.7984 14.9397C34.6152 14.6848 34.6774 14.3335 34.9373 14.1542C35.1972 13.9749 35.5573 14.0358 35.7405 14.2901C36.5403 15.401 36.9633 16.6438 36.9984 17.9841C37.0445 19.731 36.1324 21.1717 35.7377 21.7102C35.6241 21.8636 35.4478 21.9453 35.268 21.9453Z" fill="#CACACA"/>
<path d="M7.63965 22.7488V24.7658H9.36832C9.68639 24.7658 9.94454 25.0178 9.94454 25.3296C9.94454 25.6409 9.68639 25.8935 9.36832 25.8935H7.63965V27.0213H9.36832C9.68639 27.0213 9.94454 27.2733 9.94454 27.5852C9.94454 27.8964 9.68639 28.149 9.36832 28.149H7.63965V29.2768H9.36832C9.68639 29.2768 9.94454 29.5289 9.94454 29.8407C9.94454 30.1519 9.68639 30.4046 9.36832 30.4046H7.63965V31.5323H9.36832C9.68639 31.5323 9.94454 31.7844 9.94454 32.0962C9.94454 32.4074 9.68639 32.6601 9.36832 32.6601H7.63965V33.0266C7.63965 34.1121 8.5472 35.0002 9.65643 35.0002C10.7657 35.0002 11.6732 34.1121 11.6732 33.0266V22.9946L7.63965 22.7488Z" fill="#D13800"/>
<path d="M9.94454 32.0959C9.94454 31.784 9.68697 31.532 9.36831 31.532H7.63965V32.6597H9.36831C9.68639 32.6597 9.94454 32.4077 9.94454 32.0959Z" fill="#FF4400"/>
<path d="M9.94454 29.84C9.94454 29.5282 9.68697 29.2761 9.36831 29.2761H7.63965V30.4039H9.36831C9.68639 30.4039 9.94454 30.1518 9.94454 29.84Z" fill="#FF4400"/>
<path d="M9.94454 27.5841C9.94454 27.2723 9.68697 27.0203 9.36831 27.0203H7.63965V28.148H9.36831C9.68639 28.148 9.94454 27.896 9.94454 27.5841Z" fill="#FF4400"/>
<path d="M9.94454 25.3283C9.94454 25.0165 9.68697 24.7644 9.36831 24.7644H7.63965V25.8922H9.36831C9.68639 25.8922 9.94454 25.6401 9.94454 25.3283Z" fill="#FF4400"/>
<path d="M27.1102 5.28287L26.0488 5.83942V29.9249L27.1707 30.4736C28.7732 31.2579 30.6586 30.1178 30.6586 28.3641V7.36189C30.6586 5.57947 28.7156 4.441 27.1102 5.28287Z" fill="#FF4400"/>
<path d="M20.8028 11.5454C20.6616 11.2668 20.3176 11.1512 20.0306 11.29L17.4659 12.531C16.7179 12.9229 16.2529 13.6825 16.2529 14.5136V15.7423C16.2529 16.0542 16.5105 16.3062 16.8292 16.3062C17.1478 16.3062 17.4054 16.0542 17.4054 15.7423V14.5136C17.4054 14.0992 17.637 13.7203 17.9937 13.5336L20.5423 12.301C20.827 12.1628 20.9445 11.8245 20.8028 11.5454Z" fill="#CACACA"/>
<path d="M16.8292 16.8706C16.5105 16.8706 16.2529 17.1227 16.2529 17.4345V18.5622C16.2529 18.8741 16.5105 19.1261 16.8292 19.1261C17.1478 19.1261 17.4054 18.8741 17.4054 18.5622V17.4345C17.4054 17.1232 17.1478 16.8706 16.8292 16.8706Z" fill="#CACACA"/>
</svg>
